#!OML:ASF H:\Terrain\Patient Classification 1\Terrain2\Thursday\justin.ASF
:FULLY-SPECIFIED
:DEGREES
1345
root 17.6213 24.0655 11.4009 719.476 -202.292 -359.326
lowerback 8.61422 0.741757 0.0235305
upperback 2.18958 1.20609 2.03022
thorax -2.60405 0.668458 1.95301
lowerneck -14.7719 -2.14283 -7.54517
upperneck 38.0213 2.63017 0.613854
head 15.9845 1.23533 2.39546
rclavicle -4.11484e-014 -2.14687e-014
rhumerus -31.3232 -12.8742 -75.1003
rradius 26.6818
rwrist -8.08947
rhand -24.1465 13.7742
rfingers 7.12502
rthumb 2.33586 -16.1928
lclavicle -4.11484e-014 -2.14687e-014
lhumerus -35.9325 9.56588 80.5514
lradius 32.0694
lwrist 6.34227
lhand -18.3993 23.1964
lfingers 7.12502
lthumb 7.88495 53.0294
rfemur -13.4406 -13.9576 18.5807
rtibia 50.918
rfoot -19.486 -17.058
rtoes 22.9742
lfemur -8.79223 2.39417 -22.073
ltibia 24.4434
lfoot -10.1063 -8.1181
ltoes 15.0493
1346
root 17.6473 24.0618 11.407 719.504 -201.495 -359.127
lowerback 8.72163 0.685346 0.00962434
upperback 2.24447 1.1397 2.08374
thorax -2.6058 0.63863 2.02248
lowerneck -14.7451 -2.17976 -7.52953
upperneck 37.8802 2.54094 0.619128
head 15.9099 1.20214 2.37347
rclavicle -6.34123e-014 -1.39149e-014
rhumerus -31.0927 -12.9477 -75.4505
rradius 26.974
rwrist -8.45381
rhand -23.8634 13.9982
rfingers 7.12502
rthumb 2.60929 -15.9656
lclavicle -6.34123e-014 -1.39149e-014
lhumerus -35.8483 9.97534 80.1868
lradius 31.7954
lwrist 6.18542
lhand -18.836 24.7007
lfingers 7.12502
lthumb 7.46345 54.5491
rfemur -13.4784 -13.1444 18.9048
rtibia 50.7727
rfoot -19.3829 -16.8851
rtoes 20.1623
lfemur -8.76752 2.1376 -21.7634
ltibia 24.4161
lfoot -10.6922 -8.60287
ltoes 8.43109
1347
root 17.6605 24.0624 11.4051 719.55 -200.693 -359.305
lowerback 8.7301 0.614265 -0.21373
upperback 2.20389 1.02148 2.04702
thorax -2.65109 0.579675 2.12297
lowerneck -14.8712 -2.23342 -7.50835
upperneck 38.0396 2.54039 0.568576
head 16.0253 1.20365 2.35889
rclavicle -1.02374e-014 -2.94201e-014
rhumerus -31.0459 -12.8025 -75.7724
rradius 27.43
rwrist -8.6681
rhand -23.9244 13.8519
rfingers 7.12502
rthumb 2.55035 -16.1126
lclavicle -1.02374e-014 -2.94201e-014
lhumerus -35.9233 9.93825 80.1515
lradius 31.6792
lwrist 7.02264
lhand -19.5252 25.7686
lfingers 7.12502
lthumb 6.79814 55.6395
rfemur -13.7552 -12.6168 18.7233
rtibia 50.615
rfoot -19.1741 -16.2572
rtoes 19.7672
lfemur -8.85486 1.84003 -21.9439
ltibia 24.2941
lfoot -11.1064 -8.96048
ltoes 7.11439
1348
root 17.6803 24.0634 11.3988 719.509 -199.982 -359.419
lowerback 8.72236 0.618075 -0.349376
upperback 2.24273 1.01271 1.98369
thorax -2.60725 0.575802 2.13502
lowerneck -14.9646 -2.33874 -7.4513
upperneck 38.2157 2.45112 0.530798
head 16.1464 1.17786 2.32885
rclavicle 3.3197e-014 5.56597e-015
rhumerus -31.1483 -12.3911 -76.2402
rradius 28.1945
rwrist -9.46173
rhand -24.4274 12.8643
rfingers 7.12502
rthumb 2.06454 -17.1055
lclavicle 3.3197e-014 5.56597e-015
lhumerus -35.8577 9.17491 80.4587
lradius 31.5625
lwrist 8.30515
lhand -20.9203 25.5749
lfingers 7.12502
lthumb 5.45127 55.4848
rfemur -13.8768 -11.956 18.5659
rtibia 50.4413
rfoot -18.9748 -15.4713
rtoes 21.4565
lfemur -8.74764 1.65927 -22.03
ltibia 24.0704
lfoot -10.8845 -9.37085
ltoes 8.66663
1349
root 17.7028 24.0631 11.3929 719.301 -199.163 -359.869
lowerback 8.74382 0.621276 -0.788764
upperback 2.3061 0.969513 1.79106
thorax -2.55501 0.55446 2.18802
lowerneck -14.8792 -2.41043 -7.35256
upperneck 38.1945 2.29309 0.600471
head 16.1198 1.14498 2.31429
rclavicle -7.65818e-014 2.98177e-014
rhumerus -31.1786 -12.2988 -76.6317
rradius 28.724
rwrist -9.91555
rhand -24.1718 12.8326
rfingers 7.12502
rthumb 2.31142 -17.1346
lclavicle -7.65818e-014 2.98177e-014
lhumerus -35.6812 8.97732 80.2829
lradius 31.1719
lwrist 7.88435
lhand -20.5398 25.1781
lfingers 7.12502
lthumb 5.81863 55.0782
rfemur -13.8186 -11.1905 18.0033
rtibia 50.1971
rfoot -18.9704 -14.3226
rtoes 19.9926
lfemur -8.56325 1.55092 -22.4364
ltibia 23.8329
lfoot -10.5963 -10.0571
ltoes 8.50404
1350
root 17.7253 24.0713 11.388 719.338 -198.362 -359.98
lowerback 8.72841 0.5771 -1.02819
upperback 2.30802 0.887963 1.75896
thorax -2.54351 0.514395 2.29886
lowerneck -14.8499 -2.4202 -7.31202
upperneck 38.1441 2.22404 0.705862
head 16.086 1.1415 2.33971
rclavicle 1.11319e-014 -3.57812e-015
rhumerus -31.0112 -12.1947 -76.9718
rradius 29.0316
rwrist -10.0256
rhand -23.7884 13.1132
rfingers 7.12502
rthumb 2.68173 -16.8497
lclavicle 1.11319e-014 -3.57812e-015
lhumerus -35.5643 9.47389 79.8201
lradius 30.6154
lwrist 7.11077
lhand -18.7981 26.0284
lfingers 7.12502
lthumb 7.50006 55.8754
rfemur -13.836 -10.0737 17.8676
rtibia 49.7958
rfoot -20.3282 -12.5654
rtoes 16.0717
lfemur -8.5685 1.45506 -22.4787
ltibia 23.6852
lfoot -10.592 -10.714
ltoes 7.52507
1351
root 17.7486 24.0808 11.3829 719.536 -197.704 -359.561
lowerback 8.73897 0.501322 -0.812171
upperback 2.30443 0.818157 1.92811
thorax -2.54948 0.481809 2.35982
lowerneck -14.9154 -2.35801 -7.31024
upperneck 38.1461 2.34619 0.696873
head 16.0971 1.19522 2.35919
rclavicle 1.39646e-014 1.59028e-015
rhumerus -30.8169 -11.7702 -77.3095
rradius 29.3871
rwrist -10.0542
rhand -23.5375 13.2801
rfingers 7.12502
rthumb 2.924 -16.6796
lclavicle 1.39646e-014 1.59028e-015
lhumerus -35.5293 9.84531 79.6042
lradius 30.0705
lwrist 6.86943
lhand -18.1523 26.3006
lfingers 7.12502
lthumb 8.12332 56.1244
rfemur -13.8355 -8.916 18.3648
rtibia 49.2737
rfoot -21.7429 -10.6849
rtoes 12.6833
lfemur -8.6574 1.33266 -21.9697
ltibia 23.6786
lfoot -10.542 -11.1221
ltoes 8.6027
1352
root 17.7749 24.0776 11.3792 719.581 -197.036 -359.25
lowerback 8.82966 0.384755 -0.72101
upperback 2.31176 0.686201 2.11255
thorax -2.58708 0.41998 2.5136
lowerneck -14.8637 -2.27284 -7.31405
upperneck 38.151 2.61348 0.453563
head 16.0829 1.28406 2.30289
rclavicle -2.6339e-014 1.35174e-014
rhumerus -30.7157 -11.2922 -77.5584
rradius 29.7594
rwrist -9.92097
rhand -22.9636 13.9312
rfingers 7.12502
rthumb 3.47825 -16.0201
lclavicle -2.6339e-014 1.35174e-014
lhumerus -35.6243 10.1312 79.573
lradius 29.7977
lwrist 6.99995
lhand -19.5098 24.9986
lfingers 7.12502
lthumb 6.81307 54.869
rfemur -13.6571 -7.97575 18.7689
rtibia 48.6279
rfoot -22.1461 -9.5288
rtoes 9.20248
lfemur -8.75608 1.12507 -21.5608
ltibia 23.8889
lfoot -10.3068 -11.4625
ltoes 11.0138
1353
root 17.8001 24.0626 11.3751 719.597 -196.256 -359.389
lowerback 8.83878 0.302664 -1.00453
upperback 2.24182 0.5513 2.17097
thorax -2.66048 0.354015 2.74933
lowerneck -14.859 -2.30161 -7.40182
upperneck 38.364 2.74768 0.33581
head 16.1931 1.32844 2.30439
rclavicle -2.64384e-014 7.55382e-015
rhumerus -30.7501 -11.0126 -77.7171
rradius 30.1918
rwrist -9.93879
rhand -22.6309 14.0881
rfingers 7.12502
rthumb 3.7995 -15.8578
lclavicle -2.64384e-014 7.55382e-015
lhumerus -35.7903 10.1828 79.7006
lradius 29.6037
lwrist 7.89617
lhand -21.5471 23.8728
lfingers 7.12502
lthumb 4.8461 53.7974
rfemur -13.5681 -7.06415 18.6587
rtibia 47.9408
rfoot -22.3565 -8.65071
rtoes 7.13543
lfemur -9.05928 0.922493 -21.6417
ltibia 24.2515
lfoot -10.719 -11.9432
ltoes 6.65491
